<?xml version="1.0" encoding="utf-8"?>
<!-- Generator: Adobe Illustrator 19.0.0, SVG Export Plug-In . SVG Version: 6.00 Build 0)  -->
<svg version="1.1" id="Layer_1" xmlns="http://www.w3.org/2000/svg" xmlns:xlink="http://www.w3.org/1999/xlink" x="0px" y="0px"
	 viewBox="-329 231 300 100" style="enable-background:new -329 231 300 100;" xml:space="preserve">
<style type="text/css">
	.st0{fill:#3A3A3A;}
	.st1{fill:url(#XMLID_4_);}
	.st2{fill:url(#XMLID_5_);}
	.st3{fill:url(#XMLID_6_);}
	.st4{fill:url(#XMLID_7_);}
	.st5{fill:url(#XMLID_8_);}
	.st6{fill:url(#XMLID_9_);}
	.st7{fill:url(#XMLID_10_);}
	.st8{enable-background:new    ;}
	.st9{fill:#424344;}
	.st10{fill:#A9A9A9;}
</style>
<g id="XMLID_29_">
	<g id="XMLID_64_">
		<path id="XMLID_70_" class="st0" d="M-271.5,291.9c2.3,0.6,4.3,1.4,6.4,1.5c7.8,0.4,12.1-5.1,12-10.5c-0.1-4.2,0-8.3,0-12.5
			c0-4-2.5-7.6-6.3-8.6c-2.2-0.6-4.7-0.5-7-0.5c-6.2,0-9.9,3.8-10,10c0,3.6,0,7.1-0.2,10.7c-0.2,3.1-2.8,5.4-5.6,5.3
			c-3,0-5.5-2.6-5.6-5.8c-0.1-2.8-0.1-5.5,0-8.3c0.1-3.7,3-6.2,6.6-5.7c0.8,0.1,1.6,0.5,2.5,0.8c1-2,2-4,3.1-6.2
			c-1.9-0.5-3.4-1.2-5-1.4c-6.9-1-13.7,3.3-13.4,11.3c0.1,3.7,0,7.4,0,11.1c0.1,5.8,4.3,9.9,10,10c1.2,0,2.4,0,3.6,0
			c5.7-0.1,9.8-4.2,10-9.8c0.1-3.4,0-6.7,0.2-10.1c0.2-3.4,2.6-5.6,5.7-5.6s5.4,2.3,5.6,5.7c0.1,2.8,0.2,5.5,0,8.3
			c-0.3,4.5-4.2,6.8-8.3,5c-0.3-0.1-0.6-0.2-0.9-0.4C-269.4,288-270.3,289.8-271.5,291.9z"/>
		<path id="XMLID_69_" class="st0" d="M-278.1,253.3c0-2.9-2.3-5.3-5.2-5.4c-2.9,0-5.4,2.5-5.4,5.4c0.1,2.9,2.4,5.2,5.4,5.2
			S-278.1,256.3-278.1,253.3z"/>
		<path id="XMLID_68_" class="st0" d="M-259.5,253.2c0-2.9-2.3-5.3-5.2-5.3c-2.8,0-5.3,2.4-5.3,5.3c0,3,2.4,5.4,5.4,5.3
			C-261.6,258.5-259.5,256.2-259.5,253.2z"/>
		<path id="XMLID_67_" class="st0" d="M-271.5,291.9c1.2-2.2,2.1-3.9,3.1-5.7c0.4,0.1,0.7,0.2,0.9,0.4c4.1,1.8,8-0.5,8.3-5
			c0.2-2.8,0.1-5.5,0-8.3c-0.2-3.4-2.5-5.7-5.6-5.7s-5.5,2.2-5.7,5.6c-0.2,3.4-0.1,6.7-0.2,10.1c-0.1,5.7-4.3,9.8-10,9.8
			c-1.2,0-2.4,0-3.6,0c-5.7-0.1-9.9-4.2-10-10c-0.1-3.7,0.1-7.4,0-11.1c-0.3-7.9,6.6-12.2,13.4-11.3c1.6,0.2,3.1,0.9,5,1.4
			c-1.1,2.2-2.1,4.2-3.1,6.2c-0.9-0.3-1.7-0.7-2.5-0.8c-3.6-0.5-6.5,2-6.6,5.7c-0.1,2.8-0.1,5.5,0,8.3c0.1,3.2,2.6,5.7,5.6,5.8
			c2.8,0,5.4-2.3,5.6-5.3c0.2-3.5,0.2-7.1,0.2-10.7c0.1-6.2,3.8-10,10-10c2.4,0,4.8-0.1,7,0.5c3.8,1,6.3,4.6,6.3,8.6
			c0,4.2-0.1,8.3,0,12.5c0.2,5.4-4.1,10.9-12,10.5C-267.1,293.3-269.2,292.5-271.5,291.9z"/>
		<path id="XMLID_66_" class="st0" d="M-278.1,253.3c0,3-2.2,5.3-5.2,5.3c-2.9,0-5.3-2.3-5.4-5.2s2.5-5.5,5.4-5.4
			C-280.4,248-278.1,250.3-278.1,253.3z"/>
		<path id="XMLID_65_" class="st0" d="M-259.5,253.2c0,3-2.2,5.3-5.1,5.3c-3,0-5.4-2.3-5.4-5.3c0-2.9,2.5-5.3,5.3-5.3
			C-261.8,247.9-259.5,250.3-259.5,253.2z"/>
	</g>
	<g id="XMLID_55_">
		
			<linearGradient id="XMLID_4_" gradientUnits="userSpaceOnUse" x1="-247.5991" y1="289.55" x2="-209.477" y2="289.55" gradientTransform="matrix(1 0 0 -1 0 564)">
			<stop  offset="0" style="stop-color:#0071BC"/>
			<stop  offset="1" style="stop-color:#06ADEF"/>
		</linearGradient>
		<path id="XMLID_60_" class="st1" d="M-247.6,263.5c0-2.4,0.9-4.3,2.8-5.9c1.8-1.5,3.8-2.2,6.1-2.2c2.7,0,4.9,1,6.4,3.1l20.4,27.8
			c0.6,0.9,1,1.8,1,2.8c0,1.3-0.6,2.4-1.7,3.3c-0.9,0.7-1.8,1.1-2.8,1.1c-1.2,0-2.3-0.5-3.2-1.5l-17.5-23.5c-0.7-1-1.5-1.5-2.2-1.5
			c-0.9,0-1.4,0.8-1.4,2.3l0.1,20c0,2.7-1.3,4-3.9,4c-1.2,0-2.2-0.4-2.9-1.1c-0.8-0.7-1.2-1.7-1.2-2.9V263.5z M-215.9,262.3
			c0.7,0.8,1.6,1.2,2.7,1.2c1.1,0,2-0.4,2.7-1.2c0.7-0.8,1.1-1.8,1.1-2.9s-0.4-2-1.1-2.8c-0.7-0.8-1.6-1.2-2.7-1.2
			c-1,0-1.9,0.4-2.7,1.2c-0.7,0.8-1.1,1.7-1.1,2.8S-216.6,261.5-215.9,262.3z M-215.9,273.3c0.7,0.8,1.6,1.2,2.7,1.2
			c1.1,0,2-0.4,2.7-1.2c0.7-0.8,1.1-1.8,1.1-2.9s-0.4-2-1.1-2.8c-0.7-0.8-1.6-1.2-2.7-1.2c-1,0-1.9,0.4-2.7,1.2
			c-0.7,0.8-1.1,1.7-1.1,2.8S-216.6,272.5-215.9,273.3z"/>
		
			<linearGradient id="XMLID_5_" gradientUnits="userSpaceOnUse" x1="-204.5991" y1="289.55" x2="-166.4767" y2="289.55" gradientTransform="matrix(1 0 0 -1 0 564)">
			<stop  offset="0" style="stop-color:#0071BC"/>
			<stop  offset="1" style="stop-color:#06ADEF"/>
		</linearGradient>
		<path id="XMLID_56_" class="st2" d="M-204.6,263.5c0-2.4,0.9-4.3,2.8-5.9c1.8-1.5,3.8-2.2,6.1-2.2c2.7,0,4.9,1,6.4,3.1l20.4,27.8
			c0.6,0.9,1,1.8,1,2.8c0,1.3-0.6,2.4-1.7,3.3c-0.9,0.7-1.8,1.1-2.8,1.1c-1.2,0-2.3-0.5-3.2-1.5l-17.5-23.4c-0.7-1-1.5-1.5-2.2-1.5
			c-0.9,0-1.4,0.8-1.4,2.3l0.1,20c0,2.7-1.3,4-3.9,4c-1.2,0-2.2-0.4-2.9-1.1c-0.8-0.7-1.2-1.7-1.2-2.9L-204.6,263.5L-204.6,263.5z
			 M-172.9,262.3c0.7,0.8,1.6,1.2,2.7,1.2c1.1,0,2-0.4,2.7-1.2c0.7-0.8,1.1-1.8,1.1-2.9s-0.4-2-1.1-2.8c-0.7-0.8-1.6-1.2-2.7-1.2
			c-1,0-1.9,0.4-2.7,1.2c-0.7,0.8-1.1,1.7-1.1,2.8S-173.7,261.5-172.9,262.3z M-172.9,273.3c0.7,0.8,1.6,1.2,2.7,1.2
			c1.1,0,2-0.4,2.7-1.2c0.7-0.8,1.1-1.8,1.1-2.9s-0.4-2-1.1-2.8c-0.7-0.8-1.6-1.2-2.7-1.2c-1,0-1.9,0.4-2.7,1.2
			c-0.7,0.8-1.1,1.7-1.1,2.8S-173.7,272.5-172.9,273.3z"/>
	</g>
	<g id="XMLID_42_">
		
			<linearGradient id="XMLID_6_" gradientUnits="userSpaceOnUse" x1="-162.5834" y1="289.95" x2="-132.0497" y2="289.95" gradientTransform="matrix(1 0 0 -1 0 564)">
			<stop  offset="0" style="stop-color:#0071BC"/>
			<stop  offset="1" style="stop-color:#06ADEF"/>
		</linearGradient>
		<path id="XMLID_52_" class="st3" d="M-135.5,254.7c1.1,0,1.9,0.4,2.5,1.2c0.6,0.8,0.9,1.7,0.9,2.8c0,1.1-0.3,2.1-1,2.9
			c-0.7,0.9-1.6,1.3-2.7,1.3h-14.9c-1.2,0-2.2,0.5-2.9,1.5c-0.6,0.9-1,2-1,3.3v13.2c0,1.2,0.3,2.2,1,3c0.7,0.8,1.6,1.3,2.8,1.3h13.8
			c-2.6,0.5-3.8,1.9-3.8,4.3c0,2.2,1.2,3.5,3.7,4h-13.3c-8,0-12.1-4.3-12.1-13v-13.4c0-3.3,0.9-6.2,2.8-8.6c2-2.6,4.7-3.9,7.9-3.9
			L-135.5,254.7L-135.5,254.7z M-150.8,274.3c0-1.1,0.4-2.1,1.1-2.9c0.7-0.8,1.7-1.3,2.8-1.3s2,0.4,2.8,1.3c0.7,0.8,1.1,1.8,1.1,2.9
			c0,1.1-0.4,2.1-1.1,2.9c-0.7,0.8-1.7,1.2-2.8,1.2s-2-0.4-2.8-1.2C-150.4,276.3-150.8,275.4-150.8,274.3z"/>
		
			<linearGradient id="XMLID_7_" gradientUnits="userSpaceOnUse" x1="-131.2009" y1="290" x2="-99.4551" y2="290" gradientTransform="matrix(1 0 0 -1 0 564)">
			<stop  offset="0" style="stop-color:#0071BC"/>
			<stop  offset="1" style="stop-color:#06ADEF"/>
		</linearGradient>
		<path id="XMLID_50_" class="st4" d="M-103,254.7c1.1,0,2,0.4,2.6,1.2c0.6,0.8,0.9,1.7,0.9,2.8c0,1.1-0.3,2.1-1,2.9
			c-0.7,0.9-1.6,1.3-2.7,1.3h-16.1c-1.2,0-2.2,0.4-2.9,1.3c-0.7,0.9-1,2-1,3.2v13.7c0,1.1,0.4,2,1.1,2.8c0.7,0.8,1.6,1.2,2.7,1.2
			h14.9c-2.6,0.5-3.8,1.9-3.8,4.3c0,2.2,1.2,3.5,3.6,4h-14.5c-8,0-12.1-4.3-12-13v-13.3c0-3.3,0.9-6.2,2.8-8.6
			c2-2.6,4.7-3.9,7.9-3.9L-103,254.7L-103,254.7z"/>
		
			<linearGradient id="XMLID_8_" gradientUnits="userSpaceOnUse" x1="-101.1283" y1="289.9" x2="-67.1283" y2="289.9" gradientTransform="matrix(1 0 0 -1 0 564)">
			<stop  offset="0" style="stop-color:#0071BC"/>
			<stop  offset="1" style="stop-color:#06ADEF"/>
		</linearGradient>
		<path id="XMLID_48_" class="st5" d="M-87.6,293.2v-29.8H-101c1.3-0.3,2.2-0.8,2.9-1.6c0.7-0.8,1-1.7,1-2.7s-0.4-2-1.1-2.8
			c-0.7-0.9-1.7-1.4-3-1.6H-71c1.2,0,2.1,0.4,2.8,1.3c0.7,0.9,1,1.9,1,3.1c0,1.1-0.3,2.1-0.9,3c-0.6,0.8-1.5,1.3-2.7,1.3H-79v30.1
			c-0.2-1.3-0.8-2.2-1.6-3c-0.9-0.7-1.8-1.1-2.9-1.1c-1,0-1.9,0.3-2.7,1C-86.9,291.1-87.4,292-87.6,293.2z"/>
		
			<linearGradient id="XMLID_9_" gradientUnits="userSpaceOnUse" x1="-65.9991" y1="289.9" x2="-29.5991" y2="289.9" gradientTransform="matrix(1 0 0 -1 0 564)">
			<stop  offset="0" style="stop-color:#0071BC"/>
			<stop  offset="1" style="stop-color:#06ADEF"/>
		</linearGradient>
		<path id="XMLID_43_" class="st6" d="M-66,258.8c0-1.1,0.4-2.1,1.1-2.9c0.7-0.8,1.7-1.2,2.8-1.2c1.1,0,2,0.4,2.8,1.2
			c0.7,0.8,1.1,1.8,1.1,2.9c0,1.1-0.4,2.1-1.1,2.9c-0.7,0.8-1.7,1.3-2.8,1.3c-1.1,0-2-0.4-2.8-1.3C-65.6,260.9-66,259.9-66,258.8z
			 M-62.5,293.5c-1.1,0-1.9-0.4-2.6-1.3c-0.6-0.7-0.9-1.7-0.9-2.8s0.3-2.1,1-2.9s1.5-1.2,2.7-1.2h19c1.3,0,2.4-0.3,3.2-1
			c0.8-0.7,1.2-1.6,1.2-2.7v-2.5c0-1-0.5-1.7-1.4-2.3c-0.8-0.5-1.7-0.7-2.9-0.7h-12.6c2.5-0.5,3.8-1.9,3.8-4.3c0-2.2-1.2-3.6-3.6-4
			h12.4c4.4,0,7.6,0.9,9.6,2.7s3,4.7,2.9,8.8v2.9c0,3.3-1.1,5.9-3.1,8c-2.1,2.2-4.8,3.3-8.2,3.3H-62.5z M-66,271.9
			c0-1.1,0.4-2.1,1.1-2.9s1.7-1.2,2.8-1.2c1.1,0,2,0.4,2.8,1.2c0.7,0.8,1.1,1.8,1.1,2.9s-0.4,2.1-1.1,2.9c-0.7,0.8-1.7,1.3-2.8,1.3
			c-1.1,0-2-0.4-2.8-1.3C-65.6,273.9-66,273-66,271.9z M-29.6,259c0,1.1-0.4,2.1-1.1,3s-1.6,1.3-2.8,1.3h-22.6c2.6-0.5,4-2,4-4.4
			c0-2.3-1.3-3.7-3.8-4.2h22.7c1.1,0,2,0.4,2.6,1.3C-29.9,256.8-29.6,257.8-29.6,259z"/>
	</g>
	<g id="XMLID_39_">
		
			<linearGradient id="XMLID_10_" gradientUnits="userSpaceOnUse" x1="-328.4009" y1="290" x2="-296.6551" y2="290" gradientTransform="matrix(1 0 0 -1 0 564)">
			<stop  offset="0" style="stop-color:#0071BC"/>
			<stop  offset="1" style="stop-color:#06ADEF"/>
		</linearGradient>
		<path id="XMLID_40_" class="st7" d="M-300.2,254.7c1.1,0,2,0.4,2.6,1.2c0.6,0.8,0.9,1.7,0.9,2.8c0,1.1-0.3,2.1-1,2.9
			c-0.7,0.9-1.6,1.3-2.7,1.3h-16c-1.2,0-2.2,0.4-2.9,1.3c-0.7,0.9-1,2-1,3.2v13.7c0,1.1,0.4,2,1.1,2.8c0.7,0.8,1.6,1.2,2.7,1.2h14.9
			c-2.6,0.5-3.8,1.9-3.8,4.3c0,2.2,1.2,3.5,3.6,4h-14.6c-8,0-12.1-4.3-12-13v-13.3c0-3.3,0.9-6.2,2.8-8.6c2-2.6,4.7-3.9,7.9-3.9
			L-300.2,254.7L-300.2,254.7z"/>
	</g>
	<g class="st8">
		<path class="st9" d="M-175.7,300.1l-2.5,4.7v3h-0.8v-3l-2.5-4.7h0.9l2,3.9l2-3.9H-175.7z"/>
		<path class="st9" d="M-170.3,302.1c0.5,0.2,0.8,0.6,1.1,1.1c0.3,0.5,0.4,1,0.4,1.7s-0.1,1.2-0.4,1.6c-0.3,0.5-0.6,0.8-1.1,1.1
			c-0.5,0.3-1,0.4-1.5,0.4c-0.6,0-1.1-0.1-1.5-0.4s-0.8-0.6-1.1-1.1s-0.4-1-0.4-1.6c0-0.6,0.1-1.2,0.4-1.7c0.3-0.5,0.6-0.8,1.1-1.1
			c0.5-0.2,1-0.4,1.5-0.4C-171.3,301.8-170.8,301.9-170.3,302.1z M-173,302.7c-0.3,0.2-0.6,0.4-0.8,0.8s-0.3,0.8-0.3,1.3
			c0,0.5,0.1,1,0.3,1.3s0.5,0.6,0.8,0.8s0.7,0.3,1.1,0.3c0.4,0,0.8-0.1,1.1-0.3c0.3-0.2,0.6-0.4,0.8-0.8s0.3-0.8,0.3-1.3
			c0-0.5-0.1-1-0.3-1.3s-0.5-0.6-0.8-0.8c-0.3-0.2-0.7-0.3-1.1-0.3C-172.3,302.4-172.6,302.5-173,302.7z"/>
		<path class="st9" d="M-162.3,301.8v6h-0.8v-1.5c-0.2,0.5-0.4,0.9-0.8,1.2c-0.4,0.3-0.9,0.4-1.4,0.4c-0.7,0-1.3-0.2-1.7-0.7
			c-0.4-0.4-0.7-1.1-0.7-2v-3.5h0.8v3.4c0,0.7,0.2,1.2,0.5,1.5c0.3,0.3,0.8,0.5,1.4,0.5c0.6,0,1.1-0.2,1.4-0.6
			c0.4-0.4,0.5-1,0.5-1.7v-3.2H-162.3z"/>
		<path class="st9" d="M-159,302.1c0.4-0.2,0.9-0.4,1.4-0.4v0.8h-0.3c-0.6,0-1.1,0.2-1.4,0.5c-0.4,0.3-0.6,0.8-0.6,1.5v3.3h-0.8v-6
			h0.8v1.2C-159.6,302.6-159.3,302.3-159,302.1z"/>
		<path class="st9" d="M-152.9,304.6v3.2h-0.8v-7.8h2.3c0.9,0,1.5,0.2,2,0.6s0.6,1,0.6,1.7c0,0.7-0.2,1.3-0.7,1.7s-1.1,0.6-1.9,0.6
			H-152.9z M-149.9,303.5c0.3-0.3,0.4-0.7,0.4-1.2c0-0.5-0.1-0.9-0.4-1.2c-0.3-0.3-0.8-0.4-1.4-0.4h-1.5v3.2h1.5
			C-150.7,303.9-150.2,303.8-149.9,303.5z"/>
		<path class="st9" d="M-145.8,302.1c0.4-0.2,0.9-0.4,1.4-0.4v0.8h-0.3c-0.6,0-1.1,0.2-1.4,0.5c-0.4,0.3-0.6,0.8-0.6,1.5v3.3h-0.8
			v-6h0.8v1.2C-146.5,302.6-146.2,302.3-145.8,302.1z"/>
		<path class="st9" d="M-139.1,302.1c0.5,0.2,0.8,0.6,1.1,1.1c0.3,0.5,0.4,1,0.4,1.7s-0.1,1.2-0.4,1.6c-0.3,0.5-0.6,0.8-1.1,1.1
			c-0.5,0.3-1,0.4-1.5,0.4c-0.6,0-1.1-0.1-1.5-0.4c-0.5-0.3-0.8-0.6-1.1-1.1c-0.3-0.5-0.4-1-0.4-1.6c0-0.6,0.1-1.2,0.4-1.7
			c0.3-0.5,0.6-0.8,1.1-1.1c0.5-0.2,1-0.4,1.5-0.4C-140.1,301.8-139.6,301.9-139.1,302.1z M-141.8,302.7c-0.3,0.2-0.6,0.4-0.8,0.8
			s-0.3,0.8-0.3,1.3c0,0.5,0.1,1,0.3,1.3s0.5,0.6,0.8,0.8c0.3,0.2,0.7,0.3,1.1,0.3c0.4,0,0.8-0.1,1.1-0.3s0.6-0.4,0.8-0.8
			c0.2-0.4,0.3-0.8,0.3-1.3c0-0.5-0.1-1-0.3-1.3c-0.2-0.4-0.5-0.6-0.8-0.8s-0.7-0.3-1.1-0.3C-141.1,302.4-141.4,302.5-141.8,302.7z"
			/>
		<path class="st9" d="M-131.6,302.1c0.4,0.2,0.8,0.6,1,1.1c0.2,0.5,0.4,1,0.4,1.7c0,0.6-0.1,1.2-0.4,1.6c-0.2,0.5-0.6,0.8-1,1.1
			s-0.9,0.4-1.5,0.4c-0.6,0-1.1-0.2-1.6-0.5s-0.7-0.7-0.9-1.3v1.7h-0.8v-8.2h0.8v3.8c0.2-0.5,0.5-0.9,0.9-1.3s0.9-0.5,1.6-0.5
			C-132.5,301.8-132,301.9-131.6,302.1z M-134.4,302.7c-0.3,0.2-0.6,0.5-0.8,0.8c-0.2,0.4-0.3,0.8-0.3,1.3c0,0.5,0.1,0.9,0.3,1.3
			c0.2,0.4,0.5,0.6,0.8,0.8c0.3,0.2,0.7,0.3,1.2,0.3c0.7,0,1.2-0.2,1.6-0.6c0.4-0.4,0.6-1,0.6-1.8s-0.2-1.3-0.6-1.8
			c-0.4-0.4-0.9-0.6-1.6-0.6C-133.7,302.4-134.1,302.5-134.4,302.7z"/>
		<path class="st9" d="M-128.1,299.7v8.2h-0.8v-8.2H-128.1z"/>
		<path class="st9" d="M-122.4,306.9c0.4-0.3,0.6-0.6,0.7-1.1h0.8c-0.1,0.6-0.4,1.2-0.9,1.6c-0.5,0.4-1.1,0.6-1.9,0.6
			c-0.6,0-1.1-0.1-1.5-0.4c-0.4-0.2-0.8-0.6-1-1.1c-0.3-0.5-0.4-1-0.4-1.6s0.1-1.2,0.4-1.7c0.3-0.5,0.6-0.8,1-1.1
			c0.4-0.2,1-0.4,1.5-0.4c0.6,0,1.1,0.1,1.5,0.4c0.4,0.2,0.8,0.6,1,1c0.2,0.4,0.3,0.9,0.3,1.3c0,0.2,0,0.4,0,0.6h-5
			c0,0.5,0.1,0.9,0.3,1.3c0.2,0.3,0.5,0.6,0.8,0.8c0.3,0.2,0.7,0.2,1,0.2C-123.2,307.3-122.8,307.2-122.4,306.9z M-124.8,302.6
			c-0.3,0.2-0.6,0.4-0.8,0.7s-0.3,0.8-0.3,1.3h4.3c0-0.5-0.1-0.9-0.2-1.2c-0.2-0.3-0.4-0.6-0.8-0.8c-0.3-0.2-0.7-0.2-1.1-0.2
			C-124.1,302.4-124.5,302.5-124.8,302.6z"/>
		<path class="st9" d="M-110.5,302.4c0.4,0.4,0.6,1.1,0.6,2v3.5h-0.8v-3.5c0-0.6-0.2-1.1-0.5-1.5c-0.3-0.3-0.7-0.5-1.3-0.5
			c-0.6,0-1,0.2-1.4,0.6c-0.3,0.4-0.5,0.9-0.5,1.7v3.2h-0.8v-3.5c0-0.6-0.2-1.1-0.5-1.5c-0.3-0.3-0.7-0.5-1.3-0.5
			c-0.6,0-1,0.2-1.4,0.6c-0.3,0.4-0.5,0.9-0.5,1.7v3.2h-0.8v-6h0.8v1.4c0.1-0.5,0.4-0.9,0.8-1.2c0.4-0.3,0.8-0.4,1.3-0.4
			c0.5,0,1,0.1,1.4,0.4c0.4,0.3,0.6,0.7,0.8,1.2c0.2-0.5,0.4-0.9,0.9-1.2c0.4-0.3,0.9-0.4,1.4-0.4
			C-111.5,301.7-110.9,301.9-110.5,302.4z"/>
		<path class="st9" d="M-107.7,308c0,0.4-0.1,0.6-0.3,0.8s-0.4,0.3-0.8,0.3v-0.4c0.2,0,0.3,0,0.4-0.1c0.1-0.1,0.1-0.3,0.1-0.5v-0.1
			h-0.5v-0.8h0.9C-107.7,307.5-107.7,307.7-107.7,308z"/>
		<path class="st9" d="M-98.1,300.5c0.6,0.3,1,0.8,1.4,1.4c0.3,0.6,0.5,1.3,0.5,2.1c0,0.8-0.2,1.5-0.5,2.1c-0.3,0.6-0.8,1.1-1.4,1.4
			c-0.6,0.3-1.2,0.5-1.9,0.5c-0.7,0-1.4-0.2-1.9-0.5c-0.6-0.3-1-0.8-1.4-1.4c-0.3-0.6-0.5-1.3-0.5-2.1c0-0.8,0.2-1.4,0.5-2.1
			c0.3-0.6,0.8-1.1,1.4-1.4c0.6-0.3,1.2-0.5,1.9-0.5C-99.4,300-98.7,300.2-98.1,300.5z M-101.6,301.1c-0.5,0.3-0.8,0.6-1.1,1.1
			c-0.3,0.5-0.4,1.1-0.4,1.7c0,0.7,0.1,1.2,0.4,1.7c0.3,0.5,0.6,0.9,1.1,1.1c0.5,0.3,1,0.4,1.5,0.4s1.1-0.1,1.5-0.4
			c0.5-0.3,0.8-0.6,1.1-1.1c0.3-0.5,0.4-1.1,0.4-1.7c0-0.7-0.1-1.2-0.4-1.7c-0.3-0.5-0.6-0.9-1.1-1.1c-0.5-0.3-1-0.4-1.5-0.4
			S-101.2,300.8-101.6,301.1z"/>
		<path class="st9" d="M-89.7,301.8v6h-0.8v-1.5c-0.2,0.5-0.4,0.9-0.8,1.2c-0.4,0.3-0.9,0.4-1.4,0.4c-0.7,0-1.3-0.2-1.7-0.7
			c-0.4-0.4-0.7-1.1-0.7-2v-3.5h0.8v3.4c0,0.7,0.2,1.2,0.5,1.5c0.3,0.3,0.8,0.5,1.4,0.5c0.6,0,1.1-0.2,1.4-0.6
			c0.4-0.4,0.5-1,0.5-1.7v-3.2H-89.7z"/>
		<path class="st9" d="M-86.4,302.1c0.4-0.2,0.9-0.4,1.4-0.4v0.8h-0.3c-0.6,0-1.1,0.2-1.4,0.5c-0.4,0.3-0.6,0.8-0.6,1.5v3.3H-88v-6
			h0.8v1.2C-87,302.6-86.7,302.3-86.4,302.1z"/>
		<path class="st9" d="M-76.5,302.4c0.5,0.4,0.8,0.9,0.9,1.6h-0.8c-0.1-0.5-0.3-0.9-0.7-1.1c-0.4-0.3-0.8-0.4-1.4-0.4
			c-0.4,0-0.7,0.1-1.1,0.3c-0.3,0.2-0.6,0.4-0.8,0.8c-0.2,0.4-0.3,0.8-0.3,1.3c0,0.5,0.1,1,0.3,1.3c0.2,0.4,0.5,0.6,0.8,0.8
			c0.3,0.2,0.7,0.3,1.1,0.3c0.5,0,1-0.1,1.4-0.4c0.4-0.3,0.6-0.7,0.7-1.1h0.8c-0.1,0.7-0.4,1.2-0.9,1.6c-0.5,0.4-1.1,0.6-1.9,0.6
			c-0.6,0-1.1-0.1-1.5-0.4c-0.4-0.2-0.8-0.6-1-1.1c-0.3-0.5-0.4-1-0.4-1.6s0.1-1.2,0.4-1.7c0.3-0.5,0.6-0.8,1-1.1
			c0.4-0.2,1-0.4,1.5-0.4C-77.6,301.8-77,302-76.5,302.4z"/>
		<path class="st9" d="M-69.9,302.1c0.5,0.2,0.8,0.6,1.1,1.1c0.3,0.5,0.4,1,0.4,1.7s-0.1,1.2-0.4,1.6c-0.3,0.5-0.6,0.8-1.1,1.1
			c-0.5,0.3-1,0.4-1.5,0.4c-0.6,0-1.1-0.1-1.5-0.4c-0.5-0.3-0.8-0.6-1.1-1.1c-0.3-0.5-0.4-1-0.4-1.6c0-0.6,0.1-1.2,0.4-1.7
			c0.3-0.5,0.6-0.8,1.1-1.1c0.5-0.2,1-0.4,1.5-0.4C-70.9,301.8-70.3,301.9-69.9,302.1z M-72.5,302.7c-0.3,0.2-0.6,0.4-0.8,0.8
			s-0.3,0.8-0.3,1.3c0,0.5,0.1,1,0.3,1.3s0.5,0.6,0.8,0.8c0.3,0.2,0.7,0.3,1.1,0.3c0.4,0,0.8-0.1,1.1-0.3s0.6-0.4,0.8-0.8
			c0.2-0.4,0.3-0.8,0.3-1.3c0-0.5-0.1-1-0.3-1.3c-0.2-0.4-0.5-0.6-0.8-0.8s-0.7-0.3-1.1-0.3C-71.8,302.4-72.2,302.5-72.5,302.7z"/>
		<path class="st9" d="M-62.3,302.4c0.4,0.4,0.7,1.1,0.7,2v3.5h-0.8v-3.5c0-0.7-0.2-1.2-0.5-1.5s-0.8-0.5-1.4-0.5
			c-0.6,0-1.1,0.2-1.4,0.6c-0.4,0.4-0.5,1-0.5,1.7v3.2h-0.8v-6h0.8v1.5c0.2-0.5,0.4-0.9,0.8-1.2c0.4-0.3,0.9-0.4,1.4-0.4
			C-63.3,301.7-62.8,301.9-62.3,302.4z"/>
		<path class="st9" d="M-55.5,302.4c0.5,0.4,0.8,0.9,0.9,1.6h-0.8c-0.1-0.5-0.3-0.9-0.7-1.1c-0.4-0.3-0.8-0.4-1.4-0.4
			c-0.4,0-0.7,0.1-1.1,0.3c-0.3,0.2-0.6,0.4-0.8,0.8c-0.2,0.4-0.3,0.8-0.3,1.3c0,0.5,0.1,1,0.3,1.3c0.2,0.4,0.5,0.6,0.8,0.8
			c0.3,0.2,0.7,0.3,1.1,0.3c0.5,0,1-0.1,1.4-0.4c0.4-0.3,0.6-0.7,0.7-1.1h0.8c-0.1,0.7-0.4,1.2-0.9,1.6c-0.5,0.4-1.1,0.6-1.9,0.6
			c-0.6,0-1.1-0.1-1.5-0.4c-0.4-0.2-0.8-0.6-1-1.1c-0.3-0.5-0.4-1-0.4-1.6s0.1-1.2,0.4-1.7c0.3-0.5,0.6-0.8,1-1.1
			c0.4-0.2,1-0.4,1.5-0.4C-56.6,301.8-56,302-55.5,302.4z"/>
		<path class="st9" d="M-49.2,306.9c0.4-0.3,0.6-0.6,0.7-1.1h0.8c-0.1,0.6-0.4,1.2-0.9,1.6c-0.5,0.4-1.1,0.6-1.9,0.6
			c-0.6,0-1.1-0.1-1.5-0.4c-0.4-0.2-0.8-0.6-1-1.1c-0.3-0.5-0.4-1-0.4-1.6s0.1-1.2,0.4-1.7c0.3-0.5,0.6-0.8,1-1.1
			c0.4-0.2,1-0.4,1.5-0.4c0.6,0,1.1,0.1,1.5,0.4c0.4,0.2,0.8,0.6,1,1s0.3,0.9,0.3,1.3c0,0.2,0,0.4,0,0.6h-5c0,0.5,0.1,0.9,0.3,1.3
			c0.2,0.3,0.5,0.6,0.8,0.8c0.3,0.2,0.7,0.2,1,0.2C-50,307.3-49.5,307.2-49.2,306.9z M-51.6,302.6c-0.3,0.2-0.6,0.4-0.8,0.7
			c-0.2,0.3-0.3,0.8-0.3,1.3h4.3c0-0.5-0.1-0.9-0.2-1.2c-0.2-0.3-0.4-0.6-0.8-0.8c-0.3-0.2-0.7-0.2-1.1-0.2
			C-50.9,302.4-51.3,302.5-51.6,302.6z"/>
		<path class="st9" d="M-44.6,302.1c0.4-0.2,0.9-0.4,1.4-0.4v0.8h-0.3c-0.6,0-1.1,0.2-1.4,0.5c-0.4,0.3-0.6,0.8-0.6,1.5v3.3h-0.8v-6
			h0.8v1.2C-45.3,302.6-45,302.3-44.6,302.1z"/>
		<path class="st9" d="M-37.5,302.4c0.4,0.4,0.7,1.1,0.7,2v3.5h-0.8v-3.5c0-0.7-0.2-1.2-0.5-1.5s-0.8-0.5-1.4-0.5
			c-0.6,0-1.1,0.2-1.4,0.6c-0.4,0.4-0.5,1-0.5,1.7v3.2h-0.8v-6h0.8v1.5c0.2-0.5,0.4-0.9,0.8-1.2c0.4-0.3,0.9-0.4,1.4-0.4
			C-38.5,301.7-37.9,301.9-37.5,302.4z"/>
	</g>
	<g id="XMLID_35_">
		<polygon id="XMLID_2_" class="st0" points="-325.2,304 -204.2,304 -204.2,304 		"/>
		<rect id="XMLID_1_" x="-325" y="304" class="st0" width="120" height="3"/>
	</g>
	<path id="XMLID_34_" class="st0" d="M-203.5,305.1c0.1-0.7,0.4-1.2,0.9-1.6c0.5-0.5,1.1-0.7,1.7-0.8c0.6,0,1.1,0.1,1.7,0.1
		c0,0.3,0,0.6,0,0.9c0.3,0,0.5,0,0.7,0c0.3,0,0.6,0,0.9,0c0.3,0,0.6,0.2,0.5,0.5c0,0.3-0.2,0.5-0.6,0.5c-0.5,0-1,0-1.5,0
		c0,0.7,0,1.3,0,2c0.5,0,1,0,1.6,0c0.2,0,0.4,0.1,0.5,0.3s0,0.4-0.1,0.5s-0.3,0.2-0.4,0.2c-0.5,0-1,0-1.6,0c0,0.3,0,0.7,0,1
		c-0.3,0-0.6,0-0.9,0c-0.4,0-0.7,0-1.1-0.1c-1.2-0.3-1.9-1.1-2.2-2.3c0,0,0-0.1,0-0.2c-0.3,0-0.7,0-1,0c-0.4,0-0.9,0-1.3,0
		c-0.3,0-0.5-0.2-0.5-0.5c0-0.3,0.2-0.5,0.5-0.5c0.7,0,1.4,0,2.1,0.1C-203.6,305.1-203.5,305.1-203.5,305.1z"/>
	<path id="XMLID_33_" class="st10" d="M-186.3,303.8c0.2,0,0.3,0.1,0.5,0.1c0-0.1,0-0.2,0-0.4c0.4,0.1,0.8,0.2,1.2,0.3
		c0-0.1,0-0.3,0-0.4h0.1c0.8,0.1,1.5,0.2,2.3,0.4h0.1c0,0.2,0,0.4,0,0.6l0,0c-0.5-0.1-1.1-0.3-1.7-0.4c0,0.2,0,0.3,0,0.5
		c-0.5-0.2-1-0.4-1.5-0.5c0,0.2,0,0.3,0,0.4l0,0C-185.6,304.2-186,304-186.3,303.8L-186.3,303.8z"/>
	<path id="XMLID_32_" class="st10" d="M-193.3,302.7c0.2,0,0.3,0.1,0.5,0.1c0-0.1,0-0.2,0-0.4c0.4,0.1,0.8,0.2,1.2,0.3
		c0-0.1,0-0.3,0-0.4h0.1c0.8,0.1,1.5,0.2,2.3,0.4h0.1c0,0.2,0,0.4,0,0.6l0,0c-0.5-0.1-1.1-0.3-1.7-0.4c0,0.2,0,0.3,0,0.5
		c-0.5-0.2-1-0.4-1.5-0.5c0,0.2,0,0.3,0,0.4l0,0C-192.6,303.1-193,302.9-193.3,302.7L-193.3,302.7z"/>
	<path id="XMLID_31_" class="st10" d="M-189.1,305.8c0.2,0,0.3,0.1,0.5,0.1c0-0.1,0-0.2,0-0.4c0.4,0.1,0.8,0.2,1.2,0.3
		c0-0.1,0-0.3,0-0.4h0.1c0.8,0.1,1.5,0.2,2.3,0.4h0.1c0,0.2,0,0.4,0,0.6l0,0c-0.5-0.1-1.1-0.3-1.7-0.4c0,0.2,0,0.3,0,0.5
		c-0.5-0.2-1-0.4-1.5-0.5c0,0.2,0,0.3,0,0.4l0,0C-188.4,306.2-188.8,306-189.1,305.8L-189.1,305.8z"/>
	<path id="XMLID_30_" class="st10" d="M-193.9,307.9c0.2,0,0.3,0.1,0.5,0.1c0-0.1,0-0.2,0-0.4c0.4,0.1,0.8,0.2,1.2,0.3
		c0-0.1,0-0.3,0-0.4h0.1c0.8,0.1,1.5,0.2,2.3,0.4h0.1c0,0.2,0,0.4,0,0.6l0,0c-0.5-0.1-1.1-0.3-1.7-0.4c0,0.2,0,0.3,0,0.5
		c-0.5-0.2-1-0.4-1.5-0.5c0,0.2,0,0.3,0,0.4l0,0C-193.3,308.4-193.6,308.2-193.9,307.9L-193.9,307.9z"/>
</g>
</svg>
